HIERARCHY
ROOT Hips
{
    OFFSET 0.000000 0.000000 0.000000
    CHANNELS 6 Xposition Yposition Zposition Zrotation Xrotation Yrotation
        JOINT Spine1
        {
            OFFSET -0.000000 23.269398 0.000000
            CHANNELS 3 Zrotation Xrotation Yrotation
            JOINT Neck
            {
                OFFSET -0.000000 18.032967 0.000000
                CHANNELS 3 Zrotation Xrotation Yrotation
                JOINT Head
                {
                    OFFSET -0.000000 13.091072 1.689171
                    CHANNELS 3 Zrotation Xrotation Yrotation
                    End Site
                    {
                        OFFSET -0.000000 16.891708 0.000000
                    }
                }
            }
            JOINT LeftShoulder
            {
                OFFSET 3.336773 14.146137 -0.012206
                CHANNELS 3 Zrotation Xrotation Yrotation
                JOINT LeftArm
                {
                    OFFSET 11.765518 0.000000 0.000000
                    CHANNELS 3 Zrotation Xrotation Yrotation
                    JOINT LeftForeArm
                    {
                        OFFSET 25.163450 0.000000 0.000000
                        CHANNELS 3 Zrotation Xrotation Yrotation
                        JOINT LeftHand
                        {
                            OFFSET 21.783554 0.000000 0.000000
                            CHANNELS 3 Zrotation Xrotation Yrotation
                            End Site
                            {
                                OFFSET 12.668781 0.000000 0.000000
                            }
                        }
                    }
                }
            }
            JOINT RightShoulder
            {
                OFFSET -3.409204 14.146137 -0.012206
                CHANNELS 3 Zrotation Xrotation Yrotation
                JOINT RightArm
                {
                    OFFSET -11.765518 0.000000 0.000000
                    CHANNELS 3 Zrotation Xrotation Yrotation
                    JOINT RightForeArm
                    {
                        OFFSET -25.163450 0.000000 0.000000
                        CHANNELS 3 Zrotation Xrotation Yrotation
                        JOINT RightHand
                        {
                            OFFSET -21.783554 0.000000 0.000000
                            CHANNELS 3 Zrotation Xrotation Yrotation
                            End Site
                            {
                                OFFSET -12.668781 0.000000 0.000000
                            }
                        }
                    }
                }
            }
        }
        JOINT LeftUpLeg
    {
        OFFSET 8.445854 0.000000 0.000000
        CHANNELS 3 Zrotation Xrotation Yrotation
        JOINT LeftLeg
        {
            OFFSET -0.000000 -40.674755 0.000000
            CHANNELS 3 Zrotation Xrotation Yrotation
            JOINT LeftFoot
            {
                OFFSET -0.000000 -37.111794 0.000000
                CHANNELS 3 Zrotation Xrotation Yrotation
                JOINT LeftToeBase
                {
                    OFFSET -0.000000 -5.489805 12.668781
                    CHANNELS 3 Zrotation Xrotation Yrotation
                    End Site
                    {
                        OFFSET -0.000000 0.000000 3.378341
                    }
                }
            }
        }
    }
    JOINT RightUpLeg
    {
        OFFSET -8.445854 0.000000 0.000000
        CHANNELS 3 Zrotation Xrotation Yrotation
        JOINT RightLeg
        {
            OFFSET -0.000000 -40.674755 0.000000
            CHANNELS 3 Zrotation Xrotation Yrotation
            JOINT RightFoot
            {
                OFFSET -0.000000 -37.111794 0.000000
                CHANNELS 3 Zrotation Xrotation Yrotation
                JOINT RightToeBase
                {
                    OFFSET -0.000000 -5.489805 12.668781
                    CHANNELS 3 Zrotation Xrotation Yrotation
                    End Site
                    {
                        OFFSET -0.000000 0.000000 3.378341
                    }
                }
            }
        }
    }
}
MOTION
Frames:    9
Frame Time:    0.008333
-4.441311    64.249733    108.978142    4.861075    7.275004    135.427109    -1.009671    47.464489    12.411160    -0.257374    10.656970    11.408243    -0.348949    6.713765    11.788557    5.911707    11.816090    8.185297    -53.484009    26.718861    1.134288    26.786484    -15.392170    -94.128052    41.469254    10.263415    -10.780618    -11.614122    -3.109306    6.281621    18.319397    -3.344339    43.417992    -25.135704    -12.717843    67.488937    7.254714    5.016279    10.214214    14.905211    -49.968445    6.132977    -51.735481    61.161896    44.946659    3.578974    -13.408793    18.211483    -0.529843    1.090535    3.707416    -10.764725    -49.717350    -0.387293    -4.858557    65.617508    -3.137337    13.801009    -14.160244    6.808667    0.091925    0.742358    -1.645397    
-4.605596    63.803429    109.019234    6.351565    7.775206    135.282974    0.243669    48.486073    11.359573    -0.352556    10.422011    11.342753    -0.068857    6.976785    11.648678    5.932818    11.901558    8.485672    -52.711029    26.364145    0.533410    26.438478    -15.693472    -95.098022    39.998604    10.435870    -10.176003    -11.635400    -3.212207    6.564509    18.048897    -3.444901    43.396336    -24.897696    -12.427540    66.792831    7.226558    4.913994    10.202538    15.605762    -49.622177    6.831558    -52.670753    62.815704    45.514202    3.058033    -13.027103    17.846312    -0.815831    0.871610    4.071255    -9.779654    -48.928497    -0.118111    -5.745629    66.229935    -2.297784    13.710885    -13.955443    6.858171    -0.668532    1.794095    -1.137402    
-4.769841    63.474266    109.197510    6.659653    8.357022    135.496902    0.208884    48.473949    10.966434    -0.122318    10.875332    11.176091    -0.281834    6.443354    11.566431    6.257407    11.812749    8.323361    -52.496555    26.025368    0.556408    26.226110    -16.287828    -95.928596    38.007229    10.392753    -9.662574    -11.870258    -4.053712    6.902198    18.466953    -2.752512    42.979549    -24.662518    -11.826758    66.139221    6.749625    5.117833    10.327766    15.844068    -49.464565    7.184093    -53.869007    62.957077    45.940372    3.248980    -12.780134    17.733721    -0.585012    1.069733    3.819848    -9.868527    -48.905914    -0.123374    -6.658723    66.841042    -1.614784    13.714110    -13.631508    6.900609    0.131677    0.722881    -1.736146    
-4.721848    63.151276    109.424446    8.556522    9.104896    135.514969    1.356421    49.462788    11.263739    0.066470    11.347351    10.599247    -0.499582    5.998077    11.052232    6.396553    11.957899    7.708164    -51.785290    26.390512    0.166577    26.524508    -17.425632    -96.414810    36.698822    10.324376    -8.627438    -12.137583    -3.679251    6.072987    18.403629    -2.421422    43.380604    -24.806114    -11.695877    65.175568    6.478091    5.015588    10.234401    16.600214    -48.598225    7.930425    -54.201828    64.819054    45.734192    2.540173    -12.407443    17.371944    -0.939375    0.579913    3.831659    -8.368521    -47.427361    0.801959    -6.857615    67.268356    -2.011416    13.706810    -13.419306    6.962085    0.085970    0.818645    -1.762505    
-4.885417    62.863857    109.597488    8.862968    9.709748    135.747238    1.483126    49.603531    11.053453    -0.134947    10.663719    10.523847    0.109961    6.978053    10.818525    6.375546    11.743412    7.645235    -51.152065    26.230143    -0.249765    26.240377    -17.823315    -97.036629    35.441231    10.103665    -8.330592    -12.087196    -3.705590    6.111189    18.142830    -2.448132    43.415787    -24.733782    -11.227026    64.349998    5.863775    5.125021    10.137814    16.901104    -48.337505    8.335148    -55.196091    64.838470    45.629768    2.619586    -11.545891    17.226349    -0.354917    0.961465    2.962868    -8.459874    -47.613464    0.805023    -7.681510    68.237495    -1.307082    4.954377    -12.483375    6.244945    1.137070    -0.356649    -3.036043    
-5.350285    62.087143    109.018661    7.113753    13.360602    136.503448    -1.597564    50.422596    10.933335    -0.105137    10.734241    10.286666    0.074287    6.813821    10.587149    6.373195    11.443304    7.375875    -50.677067    26.002831    -0.452322    26.100691    -18.202160    -97.552811    34.118046    10.033037    -7.990170    -12.042216    -3.679742    6.151514    17.907360    -2.398870    43.389141    -24.646770    -10.889849    63.501522    5.544978    5.121482    10.180924    13.295527    -47.615860    5.785456    -61.377369    62.700176    50.926304    2.230977    -10.905790    16.572884    -1.148674    0.664540    4.599469    -14.226056    -47.310444    -2.075417    -11.318124    70.170464    3.814528    13.867279    -14.132767    7.089140    -0.103134    1.099530    -1.666638    
-5.636252    61.923904    109.038994    7.145339    14.642514    137.090347    -1.723118    50.858459    10.028803    0.136521    11.027627    9.978365    -0.363449    6.281462    10.403708    6.393558    11.259790    7.297431    -50.282730    24.825743    -1.095443    25.499229    -17.640881    -98.379631    32.684765    10.481492    -7.765621    -11.974686    -3.605820    6.271536    17.701588    -2.644621    43.272465    -24.137691    -10.323168    62.932259    5.191620    5.154373    10.062556    11.129678    -47.042576    4.374988    -60.408890    62.790775    49.908405    3.100826    -10.611956    16.748333    -1.365955    0.459772    4.808685    -15.407269    -46.624077    -2.714412    -12.254877    70.485458    4.943762    13.547926    -14.836441    6.057391    -0.470558    1.488246    -1.211283    
-5.663972    61.753708    109.265808    7.742282    15.102970    137.381561    -1.243096    51.027721    9.920897    -0.082994    10.433457    9.835093    0.180481    7.181798    10.105756    6.337136    11.084043    7.260723    -49.722553    24.654564    -1.757092    25.699142    -18.045578    -98.643623    31.089729    10.857657    -6.774189    -11.953138    -3.550895    6.239478    28.859362    -12.297891    42.516876    -18.538025    -1.319290    70.691643    6.594710    12.416749    8.801414    10.821159    -46.762135    4.342334    -59.527534    63.787506    48.630993    2.159578    -10.030181    16.396652    -1.365955    0.459772    4.808685    -15.015387    -46.085747    -2.531876    -13.204967    70.687141    5.559680    13.661776    -14.669127    6.222409    -0.522075    1.737197    -1.484734    
-5.680511    61.594357    109.305550    8.496771    15.709813    137.664215    -0.400796    51.372032    9.223096    0.113468    10.665722    9.522926    -0.182853    6.856860    9.895896    6.242273    11.149322    7.434230    -49.077209    24.389431    -2.865453    25.709183    -18.233242    -98.731804    29.738413    10.892564    -6.463153    -11.856614    -3.471050    6.309583    17.333609    -2.406288    43.149952    -23.807940    -9.787166    61.488194    4.669147    5.004399    9.765148    11.032723    -46.208256    4.626789    -60.057449    64.374992    48.238617    1.803353    -9.512033    15.882887    -1.406539    0.467223    4.941051    -14.720468    -45.510174    -2.525725    -14.358364    71.291412    6.496389    7.165414    -12.975894    4.873837    0.594413    -0.518742    -0.944806    
